<?xml version="1.0" standalone="no"?>
<!DOCTYPE svg PUBLIC "-//W3C//DTD SVG 20010904//EN"
 "http://www.w3.org/TR/2001/REC-SVG-20010904/DTD/svg10.dtd">
<svg version="1.0" xmlns="http://www.w3.org/2000/svg"
 width="619.000000pt" height="619.000000pt" viewBox="0 0 619.000000 619.000000"
 preserveAspectRatio="xMidYMid meet">
<metadata>
Created by potrace 1.11, written by Peter Selinger 2001-2013
</metadata>
<g transform="translate(0.000000,619.000000) scale(0.100000,-0.100000)"
fill="#000000" stroke="none">
<path d="M2698 6004 c-3 -2 -38 -6 -79 -9 -41 -3 -84 -7 -96 -9 -12 -3 -43 -8
-70 -12 -26 -3 -57 -8 -68 -11 -11 -2 -33 -6 -49 -8 -15 -2 -36 -7 -46 -10
-10 -3 -27 -7 -37 -9 -33 -7 -186 -48 -213 -58 -8 -3 -51 -18 -95 -33 -44 -15
-94 -33 -112 -41 -17 -8 -38 -14 -47 -14 -9 0 -16 -4 -16 -10 0 -5 -5 -10 -12
-10 -19 0 -268 -122 -268 -132 0 -4 -9 -8 -20 -8 -11 0 -20 -4 -20 -8 0 -5
-18 -17 -40 -27 -22 -10 -40 -22 -40 -27 0 -4 -5 -8 -11 -8 -10 0 -179 -114
-215 -145 -6 -5 -50 -41 -96 -78 -120 -98 -345 -328 -420 -432 -5 -5 -24 -30
-43 -53 -19 -24 -43 -57 -52 -73 -10 -16 -21 -29 -25 -29 -4 0 -8 -4 -8 -10 0
-5 -26 -49 -57 -97 -31 -48 -87 -146 -123 -218 -123 -241 -213 -495 -260 -740
-6 -27 -12 -61 -15 -75 -9 -43 -19 -114 -32 -225 -15 -134 -8 -559 12 -663 1
-9 6 -42 10 -72 3 -30 10 -71 15 -90 5 -19 11 -48 14 -65 3 -16 7 -39 10 -50
18 -68 23 -95 18 -95 -3 0 -1 -5 6 -12 7 -7 12 -22 12 -33 0 -12 3 -25 7 -29
4 -3 8 -12 9 -19 9 -60 85 -257 161 -416 57 -121 160 -304 175 -309 4 -2 8 -8
8 -13 0 -14 116 -175 194 -269 124 -150 343 -361 480 -463 28 -21 59 -45 69
-53 9 -7 21 -14 26 -14 5 0 11 -4 13 -9 5 -16 198 -133 333 -202 117 -59 320
-146 385 -163 14 -4 34 -11 45 -15 76 -31 318 -88 445 -106 25 -3 54 -8 66
-10 127 -27 635 -26 766 1 13 2 41 6 63 9 167 19 503 114 673 191 29 13 55 24
57 24 6 0 149 71 205 102 105 57 165 92 170 98 3 4 16 13 29 20 28 14 28 14
95 70 40 34 54 40 75 35 14 -4 33 -8 41 -10 18 -4 219 -50 309 -72 36 -8 73
-17 84 -19 10 -2 27 -6 37 -9 10 -3 31 -8 46 -10 16 -2 47 -9 69 -15 22 -6 51
-13 65 -16 31 -6 147 -33 180 -41 14 -4 30 -7 35 -8 6 -1 53 -12 105 -24 52
-13 102 -24 110 -26 8 -2 55 -12 103 -24 49 -12 102 -23 119 -26 17 -3 35 -8
39 -11 5 -3 22 -7 39 -9 17 -2 45 -8 63 -13 17 -6 45 -13 60 -16 26 -6 27 -5
17 14 -6 11 -8 20 -4 20 4 0 0 8 -9 18 -8 9 -19 29 -22 44 -4 16 -11 28 -16
28 -5 0 -9 6 -9 13 0 8 -32 83 -71 168 -39 85 -80 174 -91 199 -11 25 -34 74
-50 110 -42 90 -51 114 -50 122 1 3 -5 12 -13 18 -8 7 -15 18 -15 24 0 7 -13
39 -28 72 -16 32 -37 80 -48 106 -10 27 -22 48 -26 48 -5 0 -8 6 -8 13 0 7
-43 106 -95 220 -70 154 -93 215 -89 233 3 13 10 24 14 24 4 0 19 28 34 62 15
35 31 72 36 83 16 34 89 264 92 288 2 12 6 27 10 32 7 12 40 174 62 310 5 27
8 56 21 195 6 53 6 368 0 425 -4 52 -15 152 -20 190 -2 17 -6 55 -10 85 -4 30
-9 58 -12 62 -2 5 -6 18 -8 30 -17 87 -28 137 -36 163 -5 17 -21 71 -35 120
-26 86 -78 231 -111 305 -34 75 -87 185 -92 190 -3 3 -17 27 -31 55 -36 71
-102 179 -112 183 -4 2 -8 10 -8 18 0 8 -4 14 -10 14 -5 0 -10 5 -10 11 0 6
-42 66 -93 132 -254 331 -573 606 -914 788 -43 23 -97 52 -120 66 -24 13 -45
23 -48 23 -3 0 -26 9 -53 21 -79 35 -85 38 -142 60 -66 25 -293 96 -330 103
-8 2 -26 6 -40 9 -14 4 -37 9 -52 12 -27 5 -42 8 -98 20 -26 6 -48 9 -140 20
-30 3 -68 8 -85 11 -37 7 -492 14 -497 8z"/>
</g>
</svg>
